<svg width="177" height="171" viewBox="0 0 177 171" fill="none" xmlns="http://www.w3.org/2000/svg">
<path fill-rule="evenodd" clip-rule="evenodd" d="M85.601 29.2217C92.3511 23.9629 101.456 22.9572 109.138 26.6218Lnan nanL109.138 26.6218C124.281 33.8458 126.449 54.6012 113.142 64.9678L95.6612 78.5864C92.107 81.3554 92.6859 86.8993 96.7307 88.8289L125.888 102.738C131.259 105.301 134.719 110.691 134.831 116.673L135.266 139.889C135.582 156.754 118.086 168.13 102.943 160.906Lnan nanL102.943 160.906C95.2612 157.241 90.3137 149.532 90.1534 140.976L89.4998 106.079C89.4201 101.824 86.9597 97.9903 83.1394 96.1679Lnan nanL83.1394 96.1679C79.3191 94.3454 74.791 94.8456 71.4341 97.4609L43.9 118.912C37.1499 124.17 28.0448 125.176 20.363 121.511Lnan nanL20.363 121.511C5.21962 114.287 3.05235 93.5321 16.3589 83.1655L85.601 29.2217Z" fill="white"/>
</svg>
